<mxfile host="app.diagrams.net" modified="2023-09-17T15:49:43.245Z" agent="Mozilla/5.0 (Windows NT 10.0; Win64; x64) AppleWebKit/537.36 (KHTML, like Gecko) Chrome/117.0.0.0 Safari/537.36 Edg/117.0.2045.31" etag="z28jwgJYctV2X-Er28SA" version="21.7.4" type="device">
  <diagram name="Page-1" id="GTJA2QuKX0MiApCqhT_F">
    <mxGraphModel dx="1083" dy="816" grid="1" gridSize="10" guides="1" tooltips="1" connect="1" arrows="1" fold="1" page="1" pageScale="1" pageWidth="850" pageHeight="1100" math="0" shadow="0">
      <root>
        <mxCell id="0" />
        <mxCell id="1" parent="0" />
        <mxCell id="IvMrL7Pl3BgWbBnnrWjv-39" style="edgeStyle=orthogonalEdgeStyle;orthogonalLoop=1;jettySize=auto;html=1;curved=1;" edge="1" parent="1" source="IvMrL7Pl3BgWbBnnrWjv-1" target="IvMrL7Pl3BgWbBnnrWjv-5">
          <mxGeometry relative="1" as="geometry" />
        </mxCell>
        <mxCell id="IvMrL7Pl3BgWbBnnrWjv-1" value="Cognito&lt;br&gt;&amp;nbsp;gr-auth-app&lt;br&gt;&lt;font color=&quot;#3333ff&quot;&gt;https://gr-auth.auth.us-east-1.amazoncognito.com/oauth2/authorize?...&lt;/font&gt;" style="outlineConnect=0;dashed=0;verticalLabelPosition=bottom;verticalAlign=top;align=center;html=1;shape=mxgraph.aws3.cognito;fillColor=#AD688B;gradientColor=none;" vertex="1" parent="1">
          <mxGeometry x="610" y="50" width="76.5" height="93" as="geometry" />
        </mxCell>
        <mxCell id="IvMrL7Pl3BgWbBnnrWjv-3" value="Dynamo DB&lt;br&gt;Table:&lt;br&gt;- gr-products&lt;br&gt;- gr-feedbach" style="outlineConnect=0;dashed=0;verticalLabelPosition=bottom;verticalAlign=top;align=center;html=1;shape=mxgraph.aws3.dynamo_db;fillColor=#2E73B8;gradientColor=none;" vertex="1" parent="1">
          <mxGeometry x="390" y="620" width="72" height="81" as="geometry" />
        </mxCell>
        <mxCell id="IvMrL7Pl3BgWbBnnrWjv-4" value="IAM Role&lt;br&gt;&lt;br&gt;gr-getData-role&lt;br&gt;" style="outlineConnect=0;dashed=0;verticalLabelPosition=bottom;verticalAlign=top;align=center;html=1;shape=mxgraph.aws3.iam;fillColor=#759C3E;gradientColor=none;" vertex="1" parent="1">
          <mxGeometry x="415" y="460" width="22" height="31" as="geometry" />
        </mxCell>
        <mxCell id="IvMrL7Pl3BgWbBnnrWjv-30" style="edgeStyle=orthogonalEdgeStyle;orthogonalLoop=1;jettySize=auto;html=1;entryX=1;entryY=0.21;entryDx=0;entryDy=0;entryPerimeter=0;startArrow=classic;startFill=1;endArrow=none;endFill=0;curved=1;" edge="1" parent="1" source="IvMrL7Pl3BgWbBnnrWjv-5" target="IvMrL7Pl3BgWbBnnrWjv-10">
          <mxGeometry relative="1" as="geometry" />
        </mxCell>
        <mxCell id="IvMrL7Pl3BgWbBnnrWjv-38" style="edgeStyle=orthogonalEdgeStyle;orthogonalLoop=1;jettySize=auto;html=1;curved=1;" edge="1" parent="1" source="IvMrL7Pl3BgWbBnnrWjv-5" target="IvMrL7Pl3BgWbBnnrWjv-35">
          <mxGeometry relative="1" as="geometry" />
        </mxCell>
        <mxCell id="IvMrL7Pl3BgWbBnnrWjv-46" style="edgeStyle=orthogonalEdgeStyle;orthogonalLoop=1;jettySize=auto;html=1;entryX=0.145;entryY=0.145;entryDx=0;entryDy=0;entryPerimeter=0;curved=1;exitX=1;exitY=0.8;exitDx=0;exitDy=0;exitPerimeter=0;" edge="1" parent="1" source="IvMrL7Pl3BgWbBnnrWjv-5" target="IvMrL7Pl3BgWbBnnrWjv-16">
          <mxGeometry relative="1" as="geometry" />
        </mxCell>
        <mxCell id="IvMrL7Pl3BgWbBnnrWjv-48" style="edgeStyle=orthogonalEdgeStyle;orthogonalLoop=1;jettySize=auto;html=1;entryX=0.855;entryY=0.145;entryDx=0;entryDy=0;entryPerimeter=0;curved=1;exitX=0;exitY=0.8;exitDx=0;exitDy=0;exitPerimeter=0;" edge="1" parent="1" source="IvMrL7Pl3BgWbBnnrWjv-5" target="IvMrL7Pl3BgWbBnnrWjv-17">
          <mxGeometry relative="1" as="geometry" />
        </mxCell>
        <mxCell id="IvMrL7Pl3BgWbBnnrWjv-5" value="API Gateway&lt;br&gt;&lt;font color=&quot;#3333ff&quot;&gt;https://2gqzq27226.execute-api.us-east-1.amazonaws.com/Prod&lt;/font&gt;&lt;br&gt;/products (POST)&lt;br&gt;/feedback (POST, PUT)" style="outlineConnect=0;dashed=0;verticalLabelPosition=bottom;verticalAlign=top;align=center;html=1;shape=mxgraph.aws3.api_gateway;fillColor=#D9A741;gradientColor=none;" vertex="1" parent="1">
          <mxGeometry x="390" y="210" width="76.5" height="93" as="geometry" />
        </mxCell>
        <mxCell id="IvMrL7Pl3BgWbBnnrWjv-44" style="edgeStyle=orthogonalEdgeStyle;orthogonalLoop=1;jettySize=auto;html=1;entryX=0.5;entryY=0;entryDx=0;entryDy=0;entryPerimeter=0;curved=1;" edge="1" parent="1" source="IvMrL7Pl3BgWbBnnrWjv-6" target="IvMrL7Pl3BgWbBnnrWjv-10">
          <mxGeometry relative="1" as="geometry">
            <mxPoint x="290" y="280" as="targetPoint" />
          </mxGeometry>
        </mxCell>
        <mxCell id="IvMrL7Pl3BgWbBnnrWjv-6" value="Admin User&amp;nbsp;&lt;br&gt;Authenticated with &lt;br&gt;Cognito" style="sketch=0;outlineConnect=0;dashed=0;verticalLabelPosition=bottom;verticalAlign=top;align=center;html=1;fontSize=12;fontStyle=0;aspect=fixed;pointerEvents=1;shape=mxgraph.aws4.authenticated_user;fillColor=#00CC00;strokeColor=#000000;" vertex="1" parent="1">
          <mxGeometry x="176.5" y="80" width="78" height="78" as="geometry" />
        </mxCell>
        <mxCell id="IvMrL7Pl3BgWbBnnrWjv-13" style="edgeStyle=orthogonalEdgeStyle;orthogonalLoop=1;jettySize=auto;html=1;curved=1;strokeWidth=2;shadow=0;" edge="1" parent="1" source="IvMrL7Pl3BgWbBnnrWjv-8" target="IvMrL7Pl3BgWbBnnrWjv-10">
          <mxGeometry relative="1" as="geometry" />
        </mxCell>
        <mxCell id="IvMrL7Pl3BgWbBnnrWjv-8" value="Unauthenticated &lt;br&gt;User" style="outlineConnect=0;dashed=0;verticalLabelPosition=bottom;verticalAlign=top;align=center;html=1;fontSize=12;fontStyle=0;aspect=fixed;pointerEvents=1;shape=mxgraph.aws4.users;shadow=0;perimeterSpacing=0;fillColor=#005de0;strokeColor=#6c8ebf;" vertex="1" parent="1">
          <mxGeometry x="40" y="80" width="78" height="78" as="geometry" />
        </mxCell>
        <mxCell id="IvMrL7Pl3BgWbBnnrWjv-10" value="CloudFront&lt;br&gt;&lt;font color=&quot;#3333ff&quot;&gt;https://dvobrjknedwre.cloudfront.net&lt;/font&gt;" style="outlineConnect=0;dashed=0;verticalLabelPosition=bottom;verticalAlign=top;align=center;html=1;shape=mxgraph.aws3.cloudfront;fillColor=#F58536;gradientColor=none;shadow=0;" vertex="1" parent="1">
          <mxGeometry x="100" y="210" width="76.5" height="93" as="geometry" />
        </mxCell>
        <mxCell id="IvMrL7Pl3BgWbBnnrWjv-23" value="" style="edgeStyle=orthogonalEdgeStyle;orthogonalLoop=1;jettySize=auto;html=1;curved=1;dashed=1;endArrow=none;endFill=0;" edge="1" parent="1" source="IvMrL7Pl3BgWbBnnrWjv-16" target="IvMrL7Pl3BgWbBnnrWjv-4">
          <mxGeometry relative="1" as="geometry" />
        </mxCell>
        <mxCell id="IvMrL7Pl3BgWbBnnrWjv-34" style="edgeStyle=orthogonalEdgeStyle;orthogonalLoop=1;jettySize=auto;html=1;entryX=1;entryY=0.22;entryDx=0;entryDy=0;entryPerimeter=0;curved=1;" edge="1" parent="1" source="IvMrL7Pl3BgWbBnnrWjv-16" target="IvMrL7Pl3BgWbBnnrWjv-3">
          <mxGeometry relative="1" as="geometry" />
        </mxCell>
        <mxCell id="IvMrL7Pl3BgWbBnnrWjv-16" value="gr-GetData-lambda" style="outlineConnect=0;dashed=0;verticalLabelPosition=bottom;verticalAlign=top;align=center;html=1;shape=mxgraph.aws3.lambda_function;fillColor=#F58534;gradientColor=none;" vertex="1" parent="1">
          <mxGeometry x="553.75" y="470" width="69" height="72" as="geometry" />
        </mxCell>
        <mxCell id="IvMrL7Pl3BgWbBnnrWjv-24" style="edgeStyle=orthogonalEdgeStyle;orthogonalLoop=1;jettySize=auto;html=1;curved=1;dashed=1;endArrow=none;endFill=0;" edge="1" parent="1" source="IvMrL7Pl3BgWbBnnrWjv-17" target="IvMrL7Pl3BgWbBnnrWjv-4">
          <mxGeometry relative="1" as="geometry" />
        </mxCell>
        <mxCell id="IvMrL7Pl3BgWbBnnrWjv-26" style="edgeStyle=orthogonalEdgeStyle;orthogonalLoop=1;jettySize=auto;html=1;curved=1;entryX=0;entryY=0.22;entryDx=0;entryDy=0;entryPerimeter=0;" edge="1" parent="1" source="IvMrL7Pl3BgWbBnnrWjv-17" target="IvMrL7Pl3BgWbBnnrWjv-3">
          <mxGeometry relative="1" as="geometry" />
        </mxCell>
        <mxCell id="IvMrL7Pl3BgWbBnnrWjv-17" value="gr-SaveFeedback-lambda" style="outlineConnect=0;dashed=0;verticalLabelPosition=bottom;verticalAlign=top;align=center;html=1;shape=mxgraph.aws3.lambda_function;fillColor=#F58534;gradientColor=none;" vertex="1" parent="1">
          <mxGeometry x="233.75" y="470" width="69" height="72" as="geometry" />
        </mxCell>
        <mxCell id="IvMrL7Pl3BgWbBnnrWjv-35" value="gr-feedback-bucket&lt;br&gt;&lt;font color=&quot;#3333ff&quot;&gt;http://gr-feedback-bucket.s3-website-us-east-1.amazonaws.com&lt;/font&gt;" style="outlineConnect=0;dashed=0;verticalLabelPosition=bottom;verticalAlign=top;align=center;html=1;shape=mxgraph.aws3.s3;fillColor=#E05243;gradientColor=none;" vertex="1" parent="1">
          <mxGeometry x="610" y="310" width="76.5" height="93" as="geometry" />
        </mxCell>
      </root>
    </mxGraphModel>
  </diagram>
</mxfile>
